
****** Iron.Man.2.2010.DVDRiP.x264.AC3(5.1).Multisub.mkv-Zen_Bud ******

Format                           : Matroska
File size                        : 1.46 GiB
Duration                         : 1h 59mn
Overall bit rate                 : 1 749 Kbps
Writing application              : HandBrake svn3570
Writing library                  : libmkv 0.6.4.1

Video

Format                           : AVC
Duration                         : 1h 59mn
Bit rate                         : 1 266 Kbps
Width                            : 720 pixels
Height                           : 436 pixels
Display aspect ratio             : 2.35:1
Stream size                      : 1.06 GiB (72%)
Writing library                  : x264 core 105
Language                         : English

Audio

Format                           : AC-3
Duration                         : 1h 59mn
Bit rate                         : 448 Kbps
Channel(s)                       : 6 channels
Channel positions                : Front: L C R, Side: L R, LFE
Sampling rate                    : 48.0 KHz
Bit depth                        : 16 bits
Stream size                      : 383 MiB (26%)
Language                         : English

Text #1
Language                         : Danish

Text #2
Language                         : English

Text #3
Language                         : Dutch

Text #4
Language                         : Norwegian

Text #5
Language                         : Finnish

Text #6
Language                         : Swedish

Menu
00:00:00.000                     : Chapter  1
00:04:50.920                     : Chapter  2


